<svg xmlns="http://www.w3.org/2000/svg" width="1363" height="297.66" viewBox="0 0 1363 297.66"><path id="Poonto_Logo" data-name="Poonto Logo" d="M632.588,269.776A37.234,37.234,0,0,1,620.54,241.84c0-10.653,4.085-19.9,12.047-27.737a41.892,41.892,0,0,1,57.568,0C698.124,221.941,702,231.186,702,241.84a37.028,37.028,0,0,1-11.845,27.937,41.364,41.364,0,0,1-57.568,0Zm-182.1-1.607a95.027,95.027,0,0,1-39.809-36.983c-9.591-15.88-14.292-34.168-14.292-54.672s4.7-38.79,14.292-54.666a96.736,96.736,0,0,1,39.809-37.183Q475.909,71.4,508.674,71.4t58.183,13.265a99.292,99.292,0,0,1,39.813,37.183c9.6,15.877,14.288,34.168,14.288,54.666s-4.691,38.793-14.288,54.672a97.493,97.493,0,0,1-39.813,36.983q-25.412,13.265-58.183,13.265T450.487,268.169Zm43.28-128.635a34.57,34.57,0,0,0-19.392,20.9,46.949,46.949,0,0,0-1.021,29.141,37.262,37.262,0,0,0,5.3,11.056,39.5,39.5,0,0,0,7.968,8.441,30.99,30.99,0,0,0,10.2,5.429,32.542,32.542,0,0,0,11.844,2.01,34.782,34.782,0,0,0,26.538-11.455c7.147-7.439,10.618-17.084,10.618-28.545q0-17.782-10.414-28.939c-6.942-7.439-15.924-11.056-26.742-11.056A37.311,37.311,0,0,0,493.768,139.534ZM303.927,277.412a54.27,54.27,0,0,1-19.392-12.46,55,55,0,0,1-13.065-21.1,89.725,89.725,0,0,1-4.7-29.95V133.905h-22.25V75.619h22.25V12.309L341.29,4.67V75.619H385.8v58.286H341.29v64.118a71.168,71.168,0,0,0,.409,7.236,25,25,0,0,0,1.636,6.431,9.486,9.486,0,0,0,4.288,5.027,12.963,12.963,0,0,0,7.141,1.8,35.156,35.156,0,0,0,15.109-3.214l18.172,51.253a123.648,123.648,0,0,1-26.336,11.258c-8.78,2.412-19.8,3.617-33.483,3.617A72.356,72.356,0,0,1,303.927,277.412Zm-459.5-9.243a95.019,95.019,0,0,1-39.813-36.983c-9.594-15.88-14.291-34.168-14.291-54.672s4.7-38.79,14.291-54.666a96.727,96.727,0,0,1,39.813-37.183Q-130.156,71.4-97.39,71.4t58.184,13.265A99.268,99.268,0,0,1,.606,121.848C10.2,137.724,14.9,156.016,14.9,176.514S10.2,215.307.606,231.186a97.469,97.469,0,0,1-39.812,36.983q-25.413,13.265-58.184,13.265T-155.572,268.169Zm43.279-128.635a35.571,35.571,0,0,0-11.84,8.238,35.7,35.7,0,0,0-7.557,12.666,46.069,46.069,0,0,0-2.855,16.076,45.9,45.9,0,0,0,1.838,13.065,37.164,37.164,0,0,0,5.306,11.056,39.432,39.432,0,0,0,7.965,8.441A31.033,31.033,0,0,0-109.23,214.5a32.528,32.528,0,0,0,11.84,2.01,34.779,34.779,0,0,0,26.54-11.455c7.147-7.439,10.618-17.084,10.618-28.545q0-17.782-10.412-28.939c-6.941-7.439-15.923-11.056-26.745-11.056A37.313,37.313,0,0,0-112.293,139.534ZM-390.938,268.169a95.016,95.016,0,0,1-39.809-36.983c-9.6-15.88-14.291-34.168-14.291-54.672s4.7-38.79,14.291-54.666a96.724,96.724,0,0,1,39.809-37.183Q-365.516,71.4-332.754,71.4t58.186,13.265a99.287,99.287,0,0,1,39.811,37.183c9.6,15.877,14.291,34.168,14.291,54.666s-4.694,38.793-14.291,54.672a97.488,97.488,0,0,1-39.811,36.983q-25.417,13.265-58.186,13.265T-390.938,268.169Zm43.281-128.635a35.565,35.565,0,0,0-11.841,8.238,35.646,35.646,0,0,0-7.553,12.666,45.981,45.981,0,0,0-2.86,16.076,45.984,45.984,0,0,0,1.839,13.065,37.271,37.271,0,0,0,5.306,11.056,39.5,39.5,0,0,0,7.965,8.441A31.033,31.033,0,0,0-344.6,214.5a32.547,32.547,0,0,0,11.841,2.01,34.785,34.785,0,0,0,26.542-11.455c7.147-7.439,10.615-17.084,10.615-28.545q0-17.782-10.412-28.939c-6.941-7.439-15.92-11.056-26.744-11.056A37.306,37.306,0,0,0-347.657,139.534Zm505.03,137.681V172.9c0-9.448-1.017-16.685-2.855-22.111-2.045-5.426-4.9-9.043-8.574-11.252q-5.815-3.014-15.309-3.014c-9.188,0-16.538,3.214-21.848,9.645-5.305,6.634-7.961,16.482-7.961,29.747v101.3H26.106V75.619h74.719V97.73h.406A75.468,75.468,0,0,1,159.417,71.4a123.992,123.992,0,0,1,20.009,1.61,75.842,75.842,0,0,1,17.351,5.626,53.483,53.483,0,0,1,14.7,10.248A59.278,59.278,0,0,1,222.5,104.361a86.839,86.839,0,0,1,7.146,21.908,156.767,156.767,0,0,1,2.451,28.945v122Zm-817.372,0V-15.225h115.549c14.5,0,27.768,1.607,39.812,5.027,11.841,3.414,22.047,8.035,30.418,14.267a87.926,87.926,0,0,1,21.229,22.111,94.553,94.553,0,0,1,12.66,28.539,137.4,137.4,0,0,1,3.879,33.966q0,32.263-14.085,54.872a84.748,84.748,0,0,1-39.2,33.569c-16.741,7.23-36.544,10.853-59.616,10.853h-33.48v89.237Zm77.168-156.972h20.622c13.065,0,23.477-2.818,31.438-8.643q11.638-8.748,11.638-24.723a30.625,30.625,0,0,0-11.023-23.918c-7.554-6.231-18.171-9.445-31.851-9.445h-20.824Z" transform="translate(660.5 15.725)" stroke="rgba(0,0,0,0)" stroke-miterlimit="10" stroke-width="1"></path></svg>